<svg xmlns="http://www.w3.org/2000/svg" viewBox="6.1 4.85 16.03 18.55">
  <defs>
    <clipPath id="a">
      <path
        class="powerclip"
        d="M227 166.37h26.004v26.004H227zm8.312 17.314-.053 1.224a1.73 1.73 0 0 1-.754 1.356l-1.01.69a.217.217 0 0 0 .112.397l1.224.053a1.73 1.73 0 0 1 1.356.754l.691 1.01a.217.217 0 0 0 .396-.112l.053-1.224a1.73 1.73 0 0 1 .754-1.356l1.011-.691a.217.217 0 0 0-.113-.396l-1.224-.053a1.736 1.736 0 0 1-1.356-.754l-.69-1.011a.217.217 0 0 0-.397.113zm8.712-12.807-.036.815c-.015.364-.202.7-.503.905l-.673.46a.144.144 0 0 0 .075.263l.815.037c.364.016.7.202.905.502l.46.674c.036.05.1.073.16.056s.101-.07.104-.131l.036-.815a1.16 1.16 0 0 1 .503-.905l.673-.46c.05-.036.073-.1.056-.16s-.07-.101-.131-.104l-.815-.036a1.155 1.155 0 0 1-.905-.503l-.46-.673c-.036-.05-.1-.073-.16-.056s-.101.07-.104.131zm-.034-.611a.647.647 0 0 0-.466.588v.002l-.035.814a.654.654 0 0 1-.286.514l-.677.463-.002.004a.646.646 0 0 0 .34 1.17l.816.035a.66.66 0 0 1 .514.287l.462.676.004.004a.645.645 0 0 0 1.17-.34v-.002l.036-.817a.657.657 0 0 1 .287-.513l.675-.463.004-.002a.646.646 0 0 0-.34-1.172h-.001l-.817-.035a.654.654 0 0 1-.513-.285l-.463-.678-.002-.002a.648.648 0 0 0-.705-.248zm.444 1.547c-.05.436-.268.827-.612 1.1.436.05.827.265 1.1.609.051-.436.267-.827.611-1.1a1.631 1.631 0 0 1-1.1-.61zm-9.102 11.19a.72.72 0 0 0-.52.659l-.02-.028c-.016.389-.248 1.998-.57 2.217l-1.009.692a.722.722 0 0 0-.285.789.72.72 0 0 0 .658.52l1.225.052c.388.016.743.214.962.535l.692 1.01a.72.72 0 0 0 .789.287.72.72 0 0 0 .52-.658l.052-1.225c.017-.388.216-.745.537-.965l1.01-.689a.723.723 0 0 0 .287-.791.722.722 0 0 0-.66-.52l-1.223-.052a1.233 1.233 0 0 1-.964-.537l-.692-1.008a.72.72 0 0 0-.789-.287zm.442 1.551-.016.375a2.23 2.23 0 0 1-.97 1.746l-.311.213.375.016h.002c.702.03 1.35.392 1.746.973l.213.308.015-.375a2.23 2.23 0 0 1 .971-1.748l.309-.21-.373-.016h-.002a2.237 2.237 0 0 1-1.747-.971z"
        stroke-width="0" />
    </clipPath>
  </defs>
  <g fill="#fff" stroke-width="0">
    <path
      d="M232.31 181.57a8 8 0 1 1 15.385-4.393 8 8 0 0 1-15.385 4.393m5.31-8.716c-.588.38-1.058 1.155-1.304 2.301a8.05 8.05 0 0 0-.157 1.156l2.264-.647zm-2.476 3.747c.015-.557.08-1.11.193-1.656.078-.361.184-.716.318-1.061a7.03 7.03 0 0 0-2.275 3.22zm.402 3.525a13.7 13.7 0 0 1-.387-2.49l-2.063.59a7 7 0 0 0 .056 2.584zm.6-2.772a12.5 12.5 0 0 0 .362 2.497l2.876-.821-.686-2.404zm3.514-1.003.686 2.404 2.875-.82a12.501 12.501 0 0 0-1.01-2.312zm-2.876 4.461a12.5 12.5 0 0 0 1.01 2.312l2.551-.729-.686-2.404zm3.836-1.095.687 2.404 2.551-.729a12.45 12.45 0 0 0-.361-2.496zm-2.265 4.286c.24.334.488.634.744.899.815.844 1.624 1.252 2.324 1.265l-.803-2.81zm.854 2.328a7 7 0 0 1-.83-.734 9.301 9.301 0 0 1-1.038-1.304l-1.764.504a7 7 0 0 0 3.632 1.533m-2.402-2.924a13.7 13.7 0 0 1-.987-2.318l-2.394.683a6.926 6.926 0 0 0 1.317 2.224zm7.543 1.457a7 7 0 0 0 2.275-3.22l-1.765.503a9.301 9.301 0 0 1-.192 1.656 6.995 6.995 0 0 1-.318 1.06m-2.769-1.78.803 2.81c.588-.38 1.059-1.154 1.305-2.3.078-.36.13-.746.157-1.156zm3.264-1.972 2.064-.589a6.929 6.929 0 0 0-.056-2.584l-2.394.684c.205.816.334 1.65.386 2.49m1.734-4.136a7 7 0 0 0-1.318-2.223l-2.063.589c.382.704.717 1.483.986 2.318zm-4.953-3.826c.364.379.713.816 1.038 1.304l1.764-.503a7 7 0 0 0-3.633-1.534c.288.213.567.46.83.733m.024 1.594a8 8 0 0 0-.743-.898c-.815-.844-1.623-1.253-2.324-1.266l.803 2.81z"
      clip-path="url(#a)"
      style="mix-blend-mode: normal"
      transform="translate(-225.88 -165.88)" />
    <path
      d="M235.31 183.68a.217.217 0 0 1 .396-.113l.691 1.011c.309.45.81.73 1.356.754l1.224.053a.217.217 0 0 1 .113.396l-1.01.69a1.73 1.73 0 0 0-.755 1.357l-.052 1.224a.217.217 0 0 1-.397.113l-.69-1.011a1.73 1.73 0 0 0-1.357-.754l-1.224-.053a.217.217 0 0 1-.113-.396l1.011-.691c.452-.308.73-.81.754-1.356zm8.712-12.807a.144.144 0 0 1 .105-.131.146.146 0 0 1 .158.056l.46.673c.206.301.541.487.906.503l.815.036a.144.144 0 0 1 .131.105.146.146 0 0 1-.056.158l-.673.46a1.16 1.16 0 0 0-.503.906l-.036.815a.144.144 0 0 1-.105.131.146.146 0 0 1-.158-.056l-.46-.674a1.16 1.16 0 0 0-.906-.502l-.815-.036a.144.144 0 0 1-.131-.105.146.146 0 0 1 .056-.158l.673-.461c.301-.206.488-.54.503-.905z"
      style="mix-blend-mode: normal"
      transform="translate(-225.88 -165.88)" />
  </g>
</svg>
